<?xml version="1.0" encoding="UTF-8"?>
<svg id="Layer_2" data-name="Layer 2" xmlns="http://www.w3.org/2000/svg" viewBox="0 0 969.82 955.35">
  <defs>
    <style>
      .cls-1 {
        fill: #176593;
      }

      .cls-1, .cls-2, .cls-3, .cls-4, .cls-5, .cls-6, .cls-7, .cls-8, .cls-9 {
        stroke-width: 0px;
      }

      .cls-2 {
        fill: #1285ba;
      }

      .cls-3 {
        fill: #0c5076;
      }

      .cls-4 {
        fill: #0b4b6f;
      }

      .cls-5 {
        fill: #0f557c;
      }

      .cls-6 {
        fill: #125c87;
      }

      .cls-10 {
        fill: #000;
        font-family: HelveticaNeue-CondensedBold, 'Helvetica Neue';
        font-size: 71.54px;
        font-weight: 700;
      }

      .cls-7 {
        fill: #fcfdfd;
      }

      .cls-8 {
        fill: #fff;
      }

      .cls-9 {
        fill: #021b26;
      }
    </style>
  </defs>
  <g id="Layer_1-2" data-name="Layer 1">
    <g>
      <circle class="cls-8" cx="485.74" cy="468.35" r="450"/>
      <path class="cls-9" d="M908.91,714.24c-.57,1.38-1.14,2.77-1.71,4.15-.47.6-.93,1.2-1.4,1.8-.52.92-1.05,1.84-1.57,2.76-.44.57-.89,1.14-1.33,1.72-7.03,10.41-14.05,20.81-21.08,31.22-2.92,3.5-5.85,7-8.77,10.51-.1.41-.14.83-.14,1.25-1.1,1.5-2.21,3-3.31,4.51-.39.47-.79.94-1.18,1.41-1.91,2.1-3.82,4.19-5.73,6.29,0,0-.05.05-.05.05-.55.94-1.11,1.88-1.66,2.82v-.04c-1.99,2.47-3.99,4.94-5.98,7.41,0,0,.07.03.07.03-.5.5-1.01,1.01-1.52,1.51,0,0,.02-.02.02-.02-.5.51-1,1.01-1.51,1.52,0,0,.03-.03.03-.03-.59.49-1.17.98-1.76,1.47-1.88,2-3.77,4.01-5.65,6.02-.51.51-1.01,1.02-1.52,1.54l-3.05,2.98c-12.82,11.66-25.37,23.62-38.51,34.91-29.47,25.32-62,46.12-96.79,63.25-18.11,8.92-36.83,16.62-55.37,24.64-4.25,1.84-8.92,2.7-13.4,4.02-1.02.42-2.03.84-3.05,1.26-.97.14-1.94.28-2.91.42-1,.39-2.01.78-3.01,1.17-1.99.53-3.97,1.05-5.96,1.58-.63.42-1.27.83-1.9,1.25l-.52-.1-.53.09-1.51.1c-13.48,3.09-26.87,6.69-40.47,9.15-14.05,2.54-28.26,4.51-42.48,5.77-16.97,1.5-34.04,2.95-51.04,2.69-30.87-.47-61.68-3.08-91.9-9.74-19.74-4.35-39.21-9.97-58.8-15.02-12.88-4.78-25.9-9.21-38.62-14.4-29.61-12.07-57.57-27.45-83.93-45.39-38.7-26.33-72.69-57.91-102.45-94.2-24.37-29.72-45.05-61.62-61.58-96.26-15.45-32.39-26.54-66.33-33.53-101.42-4.34-21.78-6.51-44.01-9.16-66.09-1.24-10.31-1.32-20.76-1.92-31.14.03-4.48.05-8.95.08-13.43.01-.97.03-1.93.04-2.9.02-2.01.05-4.02.07-6.02.02-.98.04-1.96.07-2.95,2.43-53.08,13.58-104.33,33.42-153.54,6.73-16.69,15.63-32.5,23.51-48.73.53-1.09.86-2.28,1.29-3.42,13.82-20.23,26.59-41.29,41.75-60.46,15.29-19.33,32.15-37.59,49.73-54.9,36.82-36.23,79.55-64.32,126.09-86.5,43.63-20.79,89.32-34.97,137.11-42.94C447.44.3,481.06-.99,514.73.68c35.69,1.78,70.7,8.59,105.06,18.72,60.13,17.72,115,45.81,164.84,83.61,27.54,20.89,52.03,45.16,74.4,71.52,8.72,10.28,17.41,20.6,25.57,31.32,5.04,6.62,9.04,14.03,13.51,21.09,3.52,5.96,7.05,11.91,10.57,17.87v-.03c.49.52.99,1.03,1.49,1.55,0,0-.15.19-.15.19,5.57,11.3,11.38,22.49,16.66,33.92,19.08,41.35,31.91,84.54,37.45,129.79,1.74,14.2,3,28.47,4.54,42.69.18,1.67.76,3.3,1.15,4.95-1.02,24.24-.68,48.63-3.44,72.67-2.84,24.74-8.52,49.16-13.31,73.65-1.94,9.89-4.58,19.67-7.36,29.37-1.33,4.65-3.73,8.99-5.65,13.46l-4.69,11.92c-4.48,10.9-8.63,21.96-13.55,32.66-3.31,7.22-7.7,13.94-11.61,20.89-.43.58-.87,1.16-1.3,1.74ZM676.22,609.94c.5.5,1.01,1.01,1.51,1.51h-.02c1.62,1.85,3.1,3.83,4.87,5.52,20.97,20.06,41.98,40.07,62.98,60.09,10.95,10.44,21.79,20.99,32.9,31.26,10.63,9.83,24.86,10.39,35.03,1.76,2.54-4.34,6.22-8.38,7.38-13.06,2.93-11.78-2.13-20.99-10.91-28.91-17.08-15.4-33.95-31.05-50.69-46.82-32.29-30.42-64.4-61.04-96.71-91.45-3.01-2.83-6.67-5.23-10.42-6.98-12.53-5.86-24.96-1.48-31.31,10.64-.47,1.08-.94,2.16-1.41,3.24h.03c-2.03,7.47-4.36,14.99,2.77,21.29h.1c.47.49.94.99,1.41,1.48v.16c3.44,3.44,6.89,6.89,10.34,10.33h.13c.47.49.95.97,1.42,1.45l.02.16c1.02.93,2.03,1.85,3.05,2.78l.05-.03c.5.5,1.01.99,1.51,1.49h0c.53.47,1.05.95,1.58,1.42l-.02.02c1.53,1.44,3.05,2.87,4.58,4.31h.02c.51.49,1.01.97,1.52,1.45h.01c2.01,1.96,4.02,3.91,6.03,5.86l.03.03c1.86,1.6,3.71,3.21,5.57,4.81l.05-.04c.5.5,1,1,1.5,1.5v.06c1.49,1.45,2.98,2.91,4.47,4.36h.03c.5.5,1,1,1.51,1.51l-.02-.02c.5.5,1.01,1.01,1.51,1.51l-.02-.02c.52.53,1.03,1.05,1.55,1.58.5.43,1,.86,1.5,1.29.53.5,1.05,1,1.58,1.5l-.03-.03c.5.51,1.01,1.01,1.51,1.52l-.03-.03c.51.5,1.02,1,1.53,1.5l-.02-.02ZM390.41,354.98c-.15,4.17-.68,8.37-.4,12.52,1.22,18.39,19.42,36.85,37.36,38.17,3.68.39,7.42,1.44,11.02,1.06,26.98-2.84,47.87-24.9,42.91-55.05-4.45-27.07-31.24-44.64-57.53-37.06-20.3,5.86-30.46,20.11-33.37,40.35ZM538.62,372.87h-26.45c-14.16,43.95-38.11,64.35-75.17,64.42-17.1.03-32.85-4.26-46.8-14.39-17.04-12.37-27.04-29.21-30.92-49.58h-59.8c0,1.87-.17,3.12.02,4.32,5.56,35.04,20.89,64.82,47.75,88.33,1.35,1.19,3.41,1.57,5.13,2.33,1.58,1.77,2.88,3.96,4.79,5.25,36.47,24.81,76.5,29.94,117.84,17.2,52.08-16.06,83.28-52.32,94.02-105.9.75-3.73,1.18-7.53,1.87-11.98h-32.3ZM568.56,684.07h61.72c.23-.6.46-1.19.69-1.79-23.21-21.93-46.39-43.89-69.71-65.7-1.44-1.34-3.99-2.09-6.03-2.1-19.34-.05-38.68.13-58.03.24-1.97-.18-3.94-.52-5.91-.52-47.91,0-95.82.01-143.73.06-1.9,0-3.8.35-6.07.58-.15,2.87-.33,5.29-.39,7.72-.45,19.4-11.39,30.12-30.99,30.16-5.2.01-10.4-.58-15.6-.62-19.68-.15-30.71-11.06-31.08-30.84-.04-2.15-.33-4.3-.58-7.39-18.7,2.53-33.76-5.39-48.58-16.67,0,19.59-.71,37.49.38,55.27.39,6.41,4.07,13.32,8.03,18.67,8.66,11.7,21.71,13.42,35.37,13.4,100.79-.1,201.57-.03,302.36-.03,2.72,0,5.44-.3,8.15-.46ZM855.69,666.95c1.95-4.19,3.46-7.29,4.85-10.45,24.08-54.79,39.22-111.72,40.62-171.86,1.53-65.83-13.4-128.21-42.88-186.65-44.4-88.03-112.5-152.33-202.22-192.9-76.12-34.42-155.74-44.71-238.43-30.79-81.24,13.67-153.08,47.3-212.93,103.63-103.77,97.69-147.75,217.99-128.94,359.8,7.93,59.81,29.06,115.41,62.55,165.65,42.32,63.49,99.51,110.26,168.19,142.81,67.6,32.04,139.14,45.47,213.6,38.76,91.61-8.26,172.49-43.06,241.97-103.65,10.59-9.23,20.75-18.96,32.45-29.7-18.8-1.29-30.84-10.54-42.37-21.67-46.08-44.51-92.52-88.64-138.87-132.87-2.73-2.6-5.82-4.82-8.75-7.22-.53.61-1.06,1.22-1.59,1.84,45.54,49.58,96.21,94.09,144.59,143.05-3.87,0-5.83,0-7.79,0-87.43-.08-174.87-.22-262.3-.22-81.47,0-162.95.21-244.42.15-39.41-.03-69.28-30.09-69.3-69.3,0-16.15-.03-32.29-.04-48.44-.02-58.13-.12-116.25,0-174.38.08-38.82,31.95-65.38,64.39-63.69,6.6.34,13.23.05,20.35.05-2.44-52.61,11.04-99.52,44.62-139.58,33.83-40.36,77.55-62.79,129.85-67.26,44.57-3.81,85.09,9.04,121.07,35.04,45.43,32.84,69.81,78.53,78.06,133.37,10.94-.86,20.23,2.74,27.79,10.26,7.61,7.58,10.47,17.04,8.82,28.2,29.57,0,58.62-.14,87.66.1,6.64.06,13.47.64,19.86,2.32,27.49,7.23,45.8,31.45,46.06,61.31.37,43.22.23,86.44.28,129.66,0,1.08-.29,2.16-.63,4.53-18.33-17.7-35.71-34.48-51.99-50.2,1.03-2.56,2.34-4.3,2.35-6.04.15-19.87.36-39.75.04-59.61-.29-18.24-11.95-29.62-30.13-29.91-12.17-.19-24.34-.06-36.51-.05-27.32.02-54.65-.02-81.97.22-2.46.02-6.12,1.27-7.17,3.11-5.99,10.49-11.35,21.34-17,32.2,6.91,6.97,13.77,14.12,20.97,20.91,1.19,1.12,4.23,1.55,5.76.85,25.03-11.45,46.36-6.19,65.88,12.64,45.94,44.31,92.35,88.13,138.53,132.19,11.46,10.93,22.81,21.99,35.04,33.79ZM570.8,360.22c1.94-48.54-22.68-95.98-66.44-120.03-48.88-26.87-97.64-25.31-144.3,5.05-40.87,26.59-59.19,66.08-61.14,115.22,2.59-1.07,3.94-1.53,5.21-2.17,18.79-9.46,37.62-18.83,56.29-28.54,2.57-1.34,4.87-4.03,6.27-6.64,27.12-50.47,98.92-56.27,131.63-9.4,8.48,12.15,17.98,20.08,30.98,25.24,1.37.54,2.62,1.39,3.94,2.07,12.27,6.28,24.55,12.56,37.56,19.21ZM262.54,571.71c0-3.77.08-6.94-.01-10.11-.48-16.35,8.19-25.6,24.62-25.89,10.67-.19,21.35-.17,32.03-.05,13.6.15,22.07,8.7,22.4,22.44.1,4.34.02,8.69.02,12.83h111.59c-7.84-7.36-14.64-14.22-22.01-20.41-2.75-2.31-6.73-4.04-10.29-4.35-36.14-3.14-69.21-14.59-98.67-35.89-22.59-16.33-40.17-37.59-51.87-62.36-7.46-15.79-17.51-18.84-32.38-16.92-9.94,1.28-17.62,5.63-21.02,15.23-1.86,5.26-2.9,11.06-3,16.64-.38,20.35.02,40.72-.32,61.07-.21,12.11,3.85,22.57,11.58,31.34,9.66,10.95,21.53,17.87,37.34,16.42ZM583.37,524.33c6.37-6.79,11.71-12.49,18.15-19.36-16.78-15.77-33.14-31.14-49.94-46.94-4.96,5.63-10.45,11.85-14.82,16.79,15.74,16.72,30.87,32.79,46.61,49.51ZM316.92,580.45h-29.62c0,9.2-.25,18.05.08,26.87.29,7.81,6.71,13.05,15.12,13,8.22-.05,14.03-4.93,14.34-12.8.34-8.84.08-17.7.08-27.08Z"/>
      <path class="cls-6" d="M909.31,246.33c-.5-.52-.99-1.03-1.49-1.55.5.52.99,1.03,1.49,1.55Z"/>
      <path class="cls-4" d="M569.7,783.29l2.04-.85-2.04.85Z"/>
      <path class="cls-4" d="M565.73,784.36c.67-.26,1.35-.53,2.02-.79-.67.26-1.35.53-2.02.79Z"/>
      <path class="cls-4" d="M560.45,786.26c.43-.28.85-.56,1.28-.84-.43.28-.85.56-1.28.84Z"/>
      <path class="cls-4" d="M558.73,786.32l1.02-.07c-.34.02-.68.04-1.02.07Z"/>
      <path class="cls-5" d="M.04,465.34c-.01.97-.03,1.93-.04,2.9.01-.97.03-1.93.04-2.9Z"/>
      <path class="cls-5" d="M.18,456.37c-.02.98-.04,1.96-.07,2.95.02-.98.04-1.96.07-2.95Z"/>
      <path class="cls-3" d="M868.75,772.15c1.1-1.5,2.21-3,3.31-4.51-1.1,1.5-2.21,3-3.31,4.51Z"/>
      <path class="cls-3" d="M842.31,802.14c.51-.51,1.01-1.02,1.52-1.54-.51.51-1.01,1.02-1.52,1.54Z"/>
      <path class="cls-3" d="M849.49,794.59c.59-.49,1.17-.98,1.76-1.47-.59.49-1.17.98-1.76,1.47Z"/>
      <path class="cls-3" d="M851.21,793.15c.5-.51,1-1.01,1.51-1.52-.5.51-1,1.01-1.51,1.52Z"/>
      <path class="cls-3" d="M852.7,791.65c.51-.5,1.01-1.01,1.52-1.51-.51.5-1.01,1.01-1.52,1.51Z"/>
      <path class="cls-4" d="M902.06,724.67c.44-.57.89-1.14,1.33-1.72-.44.57-.89,1.14-1.33,1.72Z"/>
      <path class="cls-3" d="M904.96,720.19c.47-.6.93-1.2,1.4-1.8-.47.6-.93,1.2-1.4,1.8Z"/>
      <path class="cls-3" d="M908.06,714.24c.43-.58.87-1.16,1.3-1.74-.43.58-.87,1.16-1.3,1.74Z"/>
      <path class="cls-2" d="M567.72,684.07c-2.72.16-5.44.46-8.15.46-100.79,0-201.57-.06-302.36.03-13.66.01-26.71-1.7-35.37-13.4-3.97-5.36-7.64-12.26-8.03-18.67-1.08-17.78-.38-35.68-.38-55.27,14.82,11.28,29.88,19.2,48.58,16.67.25,3.08.54,5.23.58,7.39.37,19.77,11.4,30.69,31.08,30.84,5.2.04,10.4.63,15.6.62,19.59-.04,30.53-10.77,30.99-30.16.06-2.43.24-4.85.39-7.72,2.28-.23,4.18-.58,6.07-.58,47.91-.05,95.82-.07,143.73-.06,1.97,0,3.94.34,5.91.52,5.81,5.73,11.58,11.49,17.44,17.17,17.96,17.41,35.95,34.79,53.92,52.18Z"/>
      <path class="cls-7" d="M569.95,360.22c-13.01-6.65-25.29-12.93-37.56-19.21-1.32-.68-2.57-1.53-3.94-2.07-13-5.16-22.49-13.09-30.98-25.24-32.71-46.87-104.51-41.07-131.63,9.4-1.4,2.61-3.7,5.31-6.27,6.64-18.66,9.71-37.5,19.08-56.29,28.54-1.26.64-2.62,1.1-5.21,2.17,1.95-49.13,20.27-88.62,61.14-115.22,46.66-30.36,95.42-31.92,144.3-5.05,43.75,24.05,68.38,71.49,66.44,120.03ZM536.95,303.55c-.69-1.67-1.28-4.46-2.79-6.58-9.4-13.14-19.23-26.13-33.12-34.76-8.93-5.55-18.82-9.66-28.54-13.79-5.21-2.21-9.19.9-11.37,5.64-1.97,4.3.45,9.34,5.19,11.66,1.55.75,3.31,1.05,4.88,1.77,19.96,9.26,37.26,21.49,46.72,42.32,2.26,4.98,6.15,6.22,11,4.99,5.19-1.31,7.74-4.93,8.05-11.26Z"/>
      <path class="cls-7" d="M261.69,571.71c-15.82,1.45-27.69-5.47-37.34-16.42-7.73-8.77-11.79-19.24-11.58-31.34.35-20.35-.05-40.72.32-61.07.1-5.58,1.14-11.39,3-16.64,3.4-9.6,11.09-13.95,21.02-15.23,14.87-1.92,24.92,1.14,32.38,16.92,11.7,24.77,29.28,46.02,51.87,62.36,29.46,21.3,62.53,32.76,98.67,35.89,3.57.31,7.55,2.04,10.29,4.35,7.37,6.19,14.17,13.05,22.01,20.41h-111.59c0-4.14.09-8.49-.02-12.83-.33-13.73-8.8-22.28-22.4-22.44-10.67-.12-21.35-.13-32.03.05-16.43.29-25.11,9.53-24.62,25.89.09,3.17.01,6.34.01,10.11Z"/>
      <path class="cls-7" d="M351.55,468.3c-1.73-.76-3.78-1.15-5.13-2.33-26.86-23.51-42.19-53.29-47.75-88.33-.19-1.2-.02-2.45-.02-4.32h59.8c3.89,20.37,13.88,37.21,30.92,49.58,13.95,10.13,29.7,14.42,46.8,14.39,37.05-.07,61.01-20.47,75.17-64.42h26.45c-3.64,20.44-10.48,39.52-24.49,55.3-26.1,29.4-58.73,40.66-97.48,34.55-14.25-2.25-26.77-8.53-38.5-16.57-2.68-1.84-5.1-3.3-7.69-.13-6.04,7.41-12.04,14.85-18.06,22.28Z"/>
      <path class="cls-2" d="M620,533.5c6.34-12.12,18.78-16.5,31.31-10.64,3.75,1.76,7.41,4.15,10.42,6.98,32.31,30.41,64.41,61.03,96.71,91.45,16.74,15.77,33.61,31.42,50.69,46.82,8.78,7.92,13.84,17.13,10.91,28.91-1.16,4.68-4.85,8.73-7.38,13.06-7.19-8.7-14.78-16.85-23.2-24.55-27.41-25.06-53.8-51.25-80.63-76.95-2.63-2.52-5.62-4.66-7.37-6.1-8.25,5.07-16.26,7.41-24.59,8.95h.02c-.5-.5-1.01-1-1.51-1.5l.02.02c-.51-.5-1.02-1-1.53-1.5l.03.03c-.5-.51-1.01-1.01-1.51-1.52l.03.03c-.53-.5-1.05-1-1.58-1.5-.5-.43-1-.86-1.5-1.29-.52-.53-1.03-1.05-1.55-1.58l.02.02c-.5-.5-1.01-1.01-1.51-1.51l.02.02c-.5-.51-1-1.01-1.51-1.52h-.03c.62-3.61-.84-5.08-4.46-4.35v-.06c-.51-.5-1-1-1.5-1.5l-.05.04c1.02-4.94-2.33-4.81-5.57-4.81l-.03-.03c.18-4.2-1.8-6.19-6.03-5.85h-.01c-.51-.49-1.01-.97-1.52-1.45h-.02c.37-3.46-1.12-4.94-4.58-4.32l.02-.02c-.53-.47-1.05-.95-1.58-1.42h0c-.5-.49-1.01-.99-1.51-1.48l-.05.03c-1.02-.93-2.03-1.85-3.05-2.78l-.02-.16c-.47-.48-.95-.96-1.42-1.45h-.13c-.61-6.29-3.97-9.84-10.35-10.34v-.16c-.46-.5-.94-.99-1.41-1.49h-.1c-.92-7.09-1.85-14.19-2.77-21.29h-.03c.47-1.07.94-2.15,1.41-3.23Z"/>
      <path class="cls-2" d="M351.55,468.3c6.02-7.43,12.02-14.87,18.06-22.28,2.59-3.17,5.01-1.71,7.69.13,11.73,8.05,24.25,14.32,38.5,16.57,38.75,6.11,71.38-5.15,97.48-34.55,14.01-15.78,20.86-34.86,24.49-55.3h32.3c-.69,4.45-1.12,8.25-1.87,11.98-10.74,53.58-41.94,89.84-94.02,105.9-41.34,12.75-81.37,7.61-117.84-17.2-1.91-1.3-3.2-3.48-4.79-5.25Z"/>
      <path class="cls-2" d="M389.56,354.98c2.91-20.24,13.07-34.5,33.37-40.35,26.3-7.59,53.08,9.99,57.53,37.06,4.96,30.15-15.93,52.21-42.91,55.05-3.6.38-7.34-.67-11.02-1.06-9.1-8.82-19.66-16.24-24.95-28.56-3.1-7.24-3.09-16.3-11.16-20.94-.38-.22-.57-.78-.85-1.18ZM460.57,338.81c-.18-7.66-5.92-13.74-12.82-13.57-6.93.17-13.12,6.65-12.98,13.59.14,6.94,6.01,12.57,13.08,12.53,7.47-.04,12.89-5.38,12.72-12.56Z"/>
      <path class="cls-4" d="M567.72,684.07c-17.98-17.39-35.97-34.77-53.92-52.18-5.86-5.68-11.63-11.44-17.44-17.17,19.34-.11,38.68-.29,58.03-.24,2.04,0,4.59.75,6.03,2.1,23.32,21.81,46.5,43.77,69.71,65.7-.23.6-.46,1.19-.69,1.79h-61.72Z"/>
      <path class="cls-1" d="M676.87,611.44c8.33-1.55,16.34-3.88,24.59-8.95,1.75,1.44,4.74,3.58,7.37,6.1,26.83,25.7,53.22,51.89,80.63,76.95,8.42,7.7,16.01,15.86,23.2,24.55-10.17,8.63-24.4,8.07-35.03-1.76-11.11-10.27-21.95-20.82-32.9-31.26-21-20.02-42.01-40.03-62.98-60.09-1.77-1.69-3.26-3.68-4.87-5.53Z"/>
      <path class="cls-7" d="M582.53,524.33c-15.74-16.72-30.87-32.79-46.61-49.51,4.36-4.94,9.85-11.16,14.82-16.79,16.81,15.8,33.17,31.17,49.94,46.94-6.44,6.87-11.78,12.57-18.15,19.36Z"/>
      <path class="cls-7" d="M316.07,580.45c0,9.38.26,18.24-.08,27.08-.31,7.87-6.12,12.75-14.34,12.8-8.41.05-14.83-5.19-15.12-13-.33-8.82-.08-17.67-.08-26.87h29.62Z"/>
      <path class="cls-1" d="M389.56,354.98c.28.4.47.96.85,1.18,8.07,4.65,8.05,13.71,11.16,20.94,5.29,12.33,15.85,19.74,24.95,28.56-17.95-1.32-36.14-19.78-37.36-38.17-.28-4.14.25-8.34.4-12.52Z"/>
      <path class="cls-1" d="M618.63,536.73c.92,7.1,1.85,14.2,2.77,21.3-7.13-6.29-4.8-13.81-2.77-21.3Z"/>
      <path class="cls-1" d="M622.9,559.67c6.38.51,9.74,4.05,10.35,10.33-3.45-3.44-6.9-6.89-10.35-10.33Z"/>
      <path class="cls-1" d="M653.18,588.95c3.24,0,6.59-.13,5.57,4.81-1.86-1.6-3.71-3.21-5.57-4.81Z"/>
      <path class="cls-1" d="M647.12,583.07c4.23-.34,6.21,1.64,6.03,5.85-2.01-1.95-4.02-3.9-6.03-5.85Z"/>
      <path class="cls-1" d="M660.31,595.28c3.62-.72,5.09.75,4.46,4.36-1.49-1.45-2.97-2.91-4.46-4.36Z"/>
      <path class="cls-1" d="M640.99,577.29c3.46-.62,4.95.86,4.58,4.31-1.53-1.44-3.05-2.87-4.58-4.31Z"/>
      <path class="cls-1" d="M634.82,571.62c1.02.93,2.03,1.85,3.05,2.78-1.02-.93-2.03-1.85-3.05-2.78Z"/>
      <path class="cls-1" d="M620,533.5c-.47,1.08-.94,2.16-1.41,3.24.47-1.08.94-2.16,1.41-3.24Z"/>
      <path class="cls-1" d="M621.5,558.02c.47.5.94.99,1.41,1.49-.47-.5-.94-.99-1.41-1.49Z"/>
      <path class="cls-1" d="M633.38,570.01c.47.48.95.96,1.42,1.45-.47-.48-.95-.96-1.42-1.45Z"/>
      <path class="cls-1" d="M637.92,574.36c.5.5,1.01.99,1.51,1.49-.5-.5-1.01-.99-1.51-1.49Z"/>
      <path class="cls-1" d="M639.43,575.85c.53.47,1.05.95,1.58,1.42-.53-.47-1.05-.95-1.58-1.42Z"/>
      <path class="cls-1" d="M645.59,581.61c.51.48,1.01.96,1.52,1.44-.51-.48-1.01-.96-1.52-1.44Z"/>
      <path class="cls-1" d="M658.8,593.72c.5.5,1,1,1.5,1.5-.5-.5-1-1-1.5-1.5Z"/>
      <path class="cls-1" d="M664.8,599.64c.5.51,1,1.01,1.51,1.52-.5-.51-1-1.01-1.51-1.52Z"/>
      <path class="cls-1" d="M666.29,601.14c.5.5,1.01,1.01,1.51,1.51-.5-.5-1.01-1.01-1.51-1.51Z"/>
      <path class="cls-1" d="M667.78,602.62c.52.53,1.03,1.05,1.55,1.58-.52-.53-1.03-1.05-1.55-1.58Z"/>
      <path class="cls-1" d="M670.82,605.49c.53.5,1.05,1,1.58,1.5-.53-.5-1.05-1-1.58-1.5Z"/>
      <path class="cls-1" d="M672.37,606.96c.5.51,1.01,1.01,1.51,1.52-.5-.51-1.01-1.01-1.51-1.52Z"/>
      <path class="cls-1" d="M673.86,608.46c.51.5,1.02,1,1.53,1.5-.51-.5-1.02-1-1.53-1.5Z"/>
      <path class="cls-1" d="M675.37,609.94c.5.5,1.01,1.01,1.51,1.51-.5-.5-1.01-1.01-1.51-1.51Z"/>
      <path class="cls-2" d="M716.65,299.54c3.24-18.06-4.39-32.85-19.26-37.48-8.19-2.55-16.29-1.16-22.37,4.46-5.35,4.94-9.09,11.63-14.06,18.24-8.69-3.41-18.61-3.42-27.82,3.72-1.05.81-3.92.98-4.57.24-1.11-1.26-1.8-3.61-1.48-5.27,1.74-9,7.08-15.29,15.77-18.17,5.08-1.68,8.74-4.44,12.49-8.38,13.42-14.08,30.33-19.02,48.93-13.55,18.25,5.37,28.61,18.95,32.31,37.38,1.2,5.99,1.23,12.22,1.87,19.09,4.98,0,9.9-.23,14.79.06,7.27.43,12.64,6.96,11.55,13.62-.9,5.47-4.31,8.06-11.49,8.1-19.12.11-38.24.06-57.36.07-5.96,0-11.92-.12-17.88.04-5.56.15-9.89-1.43-11.22-7.4-1.11-4.99,2.43-10.94,7.96-12.86,2.97-1.03,6.28-1.43,9.45-1.49,10.42-.17,20.85-.05,31.28-.06.23,0,.45-.14,1.13-.37Z"/>
      <path class="cls-9" d="M536.95,303.55c-.31,6.32-2.86,9.94-8.05,11.26-4.84,1.23-8.73-.01-11-4.99-9.46-20.83-26.76-33.06-46.72-42.32-1.56-.73-3.33-1.02-4.88-1.77-4.73-2.31-7.16-7.36-5.19-11.66,2.17-4.74,6.15-7.85,11.37-5.64,9.73,4.13,19.61,8.24,28.54,13.79,13.89,8.63,23.72,21.62,33.12,34.76,1.52,2.12,2.11,4.9,2.79,6.58Z"/>
      <path class="cls-7" d="M460.57,338.81c.16,7.18-5.25,12.52-12.72,12.56-7.07.03-12.94-5.59-13.08-12.53-.14-6.94,6.05-13.42,12.98-13.59,6.9-.17,12.65,5.91,12.82,13.57Z"/>
      <path class="cls-7" d="M310.97,787.38h-9.48c1.52-4.2,2.85-7.89,4.68-12.94,1.84,4.96,3.14,8.47,4.8,12.94Z"/>
      <text class="cls-10" transform="translate(309.22 818.52)"><tspan x="0" y="0">Job Connect</tspan></text>
    </g>
  </g>
</svg>